<svg xmlns="http://www.w3.org/2000/svg" fill="none" viewBox="-0.715 -0.715 20 20" id="Monitor-Error--Streamline-Flex" height="20" width="20">
  <desc>
    Monitor Error Streamline Icon: https://streamlinehq.com
  </desc>
  <g id="monitor-error--wireless-wifi-internet-server-network-monitor-issue-connection">
    <path id="Rectangle 24" fill="#ffffff" d="M7.479730714285715 13.821385714285714H11.088942857142857l0.9948214285714286 3.591968571428572H6.484909285714286l0.9948214285714286 -3.591968571428572Z" stroke-width="1.43"></path>
    <path id="Intersect" fill="#d7e0ff" d="M1.4776414285714288 12.349050000000002c0.09815571428571429 0.5889342857142857 0.5571 1.0611428571428572 1.1473607142857143 1.1301171428571428 2.1130007142857146 0.25202142857142856 4.36395 0.3422185714285715 6.659997857142858 0.3422185714285715 2.3013535714285718 0 4.5138364285714285 -0.09019714285714286 6.656018571428572 -0.34354500000000004 0.5929135714285715 -0.07030071428571429 1.053184285714286 -0.5425092857142857 1.1500135714285715 -1.1314435714285715 0.2188607142857143 -1.3330607142857143 0.4841464285714286 -2.6356135714285718 0.4841464285714286 -4.857381428571429 0 -2.2960478571428573 -0.11539928571428572 -3.6423728571428575 -0.4191514285714286 -5.007267857142858a1.2481692857142856 1.2481692857142856 0 0 0 -1.0823657142857144 -0.9616607142857143A58.82445428571429 58.82445428571429 0 0 0 9.285 1.1566457142857143c-2.349105 0 -4.6504585714285716 0.08223857142857144 -6.804578571428571 0.3554828571428572a1.2494957142857144 1.2494957142857144 0 0 0 -1.065122142857143 0.9550285714285714C1.0982828571428571 3.8492957142857147 0.9948214285714286 5.084200714285715 0.9948214285714286 7.489015714285714c0 2.304006428571429 0.2652857142857143 3.5548285714285717 0.48282 4.8613607142857145Z" stroke-width="1.43"></path>
    <path id="Rectangle 23" stroke="#4147d5" stroke-linecap="round" stroke-linejoin="round" d="m11.23617642857143 13.821385714285714 0.8489142857142857 3.591968571428572H6.484909285714286l0.8475878571428572 -3.591968571428572" stroke-width="1.43"></path>
    <path id="Vector 8" stroke="#4147d5" stroke-linecap="round" stroke-linejoin="round" d="M4.321504285714286 17.413354285714288h9.928317857142858" stroke-width="1.43"></path>
    <path id="Ellipse 93" stroke="#4147d5" stroke-linecap="round" stroke-linejoin="round" d="M10.429707857142859 5.000635714285715A4.3559914285714285 4.3559914285714285 0 0 1 13.264285714285716 3.9554100000000005c1.0810392857142856 0 2.071881428571429 0.39262285714285716 2.8345778571428575 1.0425728571428572" stroke-width="1.43"></path>
    <path id="Ellipse 94" stroke="#4147d5" stroke-linecap="round" stroke-linejoin="round" d="M8.621785714285714 2.650204285714286A7.305968571428572 7.305968571428572 0 0 1 13.264285714285716 0.9948214285714286c1.761497142857143 0 3.3784135714285717 0.6207685714285716 4.6425 1.6553828571428573" stroke-width="1.43"></path>
    <path id="Vector 410" stroke="#4147d5" stroke-linecap="round" stroke-linejoin="round" d="m12.067847142857145 7.133532857142858 2.392877142857143 2.3942035714285717" stroke-width="1.43"></path>
    <path id="Vector 411" stroke="#4147d5" stroke-linecap="round" stroke-linejoin="round" d="M14.460724285714285 7.133532857142858 12.066520714285714 9.527736428571428" stroke-width="1.43"></path>
    <path id="Intersect_2" stroke="#4147d5" stroke-linecap="round" stroke-linejoin="round" d="M17.510183571428573 9.285c-0.09285000000000002 1.220314285714286 -0.2666121428571429 2.1328971428571433 -0.4191514285714286 3.061397142857143 -0.09682928571428571 0.5902607142857144 -0.5571 1.0611428571428572 -1.1500135714285715 1.1314435714285715 -2.142182142857143 0.25202142857142856 -4.354665 0.3448714285714286 -6.656018571428572 0.3448714285714286 -2.2960478571428573 0 -4.546997142857143 -0.09152357142857144 -6.658671428571428 -0.3422185714285715a1.3436721428571428 1.3436721428571428 0 0 1 -1.148687142857143 -1.1301171428571428C1.2601071428571429 11.043844285714288 0.9948214285714286 9.793022142857144 0.9948214285714286 7.489015714285714c0 -2.404815 0.10346142857142858 -3.6397200000000005 0.4204778571428572 -5.021858571428572a1.2494957142857144 1.2494957142857144 0 0 1 1.065122142857143 -0.9550285714285714C3.816135 1.3423457142857145 5.207558571428572 1.2468428571428571 6.632142857142858 1.1990914285714287" stroke-width="1.43"></path>
  </g>
</svg>